<?xml version="1.0" encoding="UTF-8" standalone="no"?>
<svg
   xmlns:dc="http://purl.org/dc/elements/1.1/"
   xmlns:cc="http://creativecommons.org/ns#"
   xmlns:rdf="http://www.w3.org/1999/02/22-rdf-syntax-ns#"
   xmlns:svg="http://www.w3.org/2000/svg"
   xmlns="http://www.w3.org/2000/svg"
   xmlns:sodipodi="http://sodipodi.sourceforge.net/DTD/sodipodi-0.dtd"
   xmlns:inkscape="http://www.inkscape.org/namespaces/inkscape"
   version="1.1"
   id="Capa_1"
   x="0px"
   y="0px"
   viewBox="0 0 563.59436 367.61993"
   xml:space="preserve"
   sodipodi:docname="uncork_logo.svg"
   inkscape:version="1.0.2 (e86c870879, 2021-01-15, custom)"
   width="563.59436"
   height="367.61993"
   inkscape:export-filename="C:\Users\Ben\Ben\Work\iMinds\Projects\2020 09 DAPSI\PR\uncork_logo.png"
   inkscape:export-xdpi="72.051819"
   inkscape:export-ydpi="72.051819"><metadata
   id="metadata58"><rdf:RDF><cc:Work
       rdf:about=""><dc:format>image/svg+xml</dc:format><dc:type
         rdf:resource="http://purl.org/dc/dcmitype/StillImage" /><dc:title></dc:title></cc:Work></rdf:RDF></metadata><defs
   id="defs56" /><sodipodi:namedview
   pagecolor="#ffffff"
   bordercolor="#666666"
   borderopacity="1"
   objecttolerance="10"
   gridtolerance="10"
   guidetolerance="10"
   inkscape:pageopacity="0"
   inkscape:pageshadow="2"
   inkscape:window-width="1920"
   inkscape:window-height="1017"
   id="namedview54"
   showgrid="false"
   inkscape:zoom="0.94659427"
   inkscape:cx="44.908281"
   inkscape:cy="25.9902"
   inkscape:window-x="1912"
   inkscape:window-y="-8"
   inkscape:window-maximized="1"
   inkscape:current-layer="layer1"
   fit-margin-top="0"
   fit-margin-left="0"
   fit-margin-right="0"
   fit-margin-bottom="0" />
<path
   style="fill:#77ce6f"
   d="m 205.01649,136.51144 c 5.56582,7.50564 -6.62262,28.0051 -6.62262,28.0151 l -45.23391,44.9598 c -0.73,-0.43 -1.47,-0.9 -2.27,-1.42 -4.28,-2.76 -9.6,-6.2 -19.55,-6.2 -9.95,0 -15.27,3.44 -19.55,6.2 -2.85,1.85 -8.09926,5.82105 -11.67926,6.27105 l 77.68146,-79.53019 c 15.50685,-25.53615 30.90217,-13.72454 27.22433,1.70424 z"
   id="path8-7"
   sodipodi:nodetypes="ccccscccc" /><path
   style="fill:#5daa52"
   d="m 286.81996,226.85634 -122.05,122.05 c -2.51,2.52 -5.86,3.9 -9.42,3.9 -3.56,0 -6.9,-1.38 -9.42,-3.9 l -80.51,-80.51 c -2.51,-2.52 -3.9,-5.86 -3.9,-9.42 0,-3.56 1.39,-6.9 3.9,-9.42 l 24.3,-24.3 c 2.88,0.96 6.33,1.61 10.66,1.61 9.95,0 15.27,-3.43 19.55,-6.2 3.54,-2.29 5.88,-3.8 11.41,-3.8 5.28,0 7.65,1.38 10.94,3.5 l -33.33,33.33 c -5.77,5.77 -8.95,13.45 -8.94,21.61 0,12.19 6.06,23.5 16.22,30.26 5.95,3.97 12.89,6.07 20.06,6.07 0.03,0 0.05,0 0.07,0 11.62,0 22.54,-4.53 30.76,-12.75 l 80.48,-80.48 c 2.01,-0.97 4.19,-1.54 7.58,-1.54 5.53,0 7.87,1.51 11.42,3.8 4.27,2.77 9.59,6.2 19.55,6.2 0.23,0 0.45,-0.01 0.67,-0.01 z"
   id="path10" /><path
   style="fill:#c6b54f"
   d="m 286.32996,122.77634 -21.13,21.12 c -3.21,-3.8 -5.03,-8.65 -5.03,-13.76 0,-4.15 1.62,-8.06 4.56,-11 2.94,-2.94 6.84,-4.56 11,-4.56 5.09,0 9.37,3.49 10.6,8.2 z"
   id="path12" /><path
   style="fill:#e5d665"
   d="m 278.45996,166.33634 -39.93,39.93 c -1.03,0.6 -1.99,1.22 -2.9,1.8 -3.54,2.29 -5.88,3.8 -11.41,3.8 -5.52,0 -7.86,-1.51 -11.4,-3.8 -4.28,-2.76 -9.6,-6.2 -19.55,-6.2 -6.46,0 -10.96,1.45 -14.5,3.22 l 67.24,-67.24 c 1.98,9.13 7.41,17.24 15.38,22.55 5.12,3.42 10.97,5.44 17.07,5.94 z"
   id="path14" /><path
   style="fill:#c6b54f"
   d="m 218.37996,226.41634 -61.87,61.87 c -5.38,5.38 -12.54,8.35 -20.17,8.35 -0.01,0 -0.02,0 -0.03,0 -4.22,0 -8.28,-1.23 -11.77,-3.55 -5.97,-3.98 -9.53,-10.62 -9.53,-17.78 0,-4.16 1.61,-8.07 4.55,-11 l 37.75,-37.76 c 1.53,0.21 3.18,0.32 4.99,0.32 9.96,0 15.28,-3.43 19.55,-6.2 3.55,-2.29 5.89,-3.8 11.42,-3.8 5.52,0 7.86,1.51 11.41,3.8 3.34,2.17 7.34,4.74 13.7,5.75 z"
   id="path16" /><g
   id="g20"
   transform="translate(0.27616941,-45.644035)">
	</g>
<g
   id="g23"
   transform="translate(0.27616941,-45.644035)">
</g>
<g
   id="g25"
   transform="translate(0.27616941,-45.644035)">
</g>
<g
   id="g27"
   transform="translate(0.27616941,-45.644035)">
</g>
<g
   id="g29"
   transform="translate(0.27616941,-45.644035)">
</g>
<g
   id="g31"
   transform="translate(0.27616941,-45.644035)">
</g>
<g
   id="g33"
   transform="translate(0.27616941,-45.644035)">
</g>
<g
   id="g35"
   transform="translate(0.27616941,-45.644035)">
</g>
<g
   id="g37"
   transform="translate(0.27616941,-45.644035)">
</g>
<g
   id="g39"
   transform="translate(0.27616941,-45.644035)">
</g>
<g
   id="g41"
   transform="translate(0.27616941,-45.644035)">
</g>
<g
   id="g43"
   transform="translate(0.27616941,-45.644035)">
</g>
<g
   id="g45"
   transform="translate(0.27616941,-45.644035)">
</g>
<g
   id="g47"
   transform="translate(0.27616941,-45.644035)">
</g>
<g
   id="g49"
   transform="translate(0.27616941,-45.644035)">
</g>
<g
   id="g51"
   transform="translate(0.27616941,-45.644035)">
</g>
<g
   inkscape:groupmode="layer"
   id="layer1"
   inkscape:label="Layer 1"
   style="display:inline"
   transform="translate(0.27616941,-45.644035)"><path
     style="fill:none;fill-opacity:1;stroke:#4d4d4d;stroke-width:15.3011;stroke-linecap:round;stroke-linejoin:round;stroke-miterlimit:4;stroke-dasharray:none;stroke-opacity:1"
     d="m 251.80188,317.77857 44.91388,-44.77386 -49.73197,-16.61434 -4.64284,-57.88561 -36.33504,6.80345 1.22385,-45.34757 -31.42589,13.99461 -32.74134,32.37352 c -97.427772,98.79801 -82.486826,85.87088 -85.449218,90.72793 -2.962392,4.85705 -0.709457,17.85295 2.988003,22.60683 3.69747,4.75389 78.964085,79.51884 78.964085,79.51884 0,0 12.45824,13.02399 26.19168,2.4598 13.73344,-10.56419 86.0448,-83.8636 86.0448,-83.8636 z"
     id="path90"
     sodipodi:nodetypes="cccccccczscsc" /><path
     style="fill:#4d4d4d"
     d="m 330.10379,250.15038 c 1.23,0.55 4.47,2.39 6.28,3.56 3.55,2.29 5.89,3.8 11.42,3.8 5.52,0 7.87,-1.51 11.41,-3.8 4.27,-2.76 9.6,-6.2 19.55,-6.2 9.95,0 15.28,3.44 19.55,6.2 3.55,2.29 5.89,3.8 11.42,3.8 5.53,0 7.87,-1.51 11.41,-3.8 4.28,-2.76 9.6,-6.2 19.56,-6.2 4.14,0 7.5,3.36 7.5,7.5 0,4.15 -3.36,7.5 -7.5,7.5 -5.53,0 -7.88,1.51 -11.42,3.8 -4.28,2.77 -9.6,6.2 -19.55,6.2 -9.96,0 -15.28,-3.43 -19.56,-6.2 -3.54,-2.29 -5.88,-3.8 -11.41,-3.8 -5.53,0 -7.87,1.51 -11.41,3.8 -4.28,2.77 -9.6,6.2 -19.55,6.2 -9.96,0 -15.28,-3.43 -19.56,-6.2 -3.34,-2.16 -8.065,-3.7 -10.51,-3.78 -21.19643,-1.00437 -17.79321,8.63682 -31.86,9.98 -9.57701,-0.3735 -15.28,-3.43 -19.55,-6.2 -3.55,-2.29 -5.89,-3.8 -11.42,-3.8 -19.76025,1.16599 -19.6938,8.98578 -36.8,9.55 -7.66445,-1.28452 -10.36,-3.58 -13.7,-5.75 -3.55,-2.29 -5.89,-3.8 -11.41,-3.8 -5.53,0 -7.87,1.51 -11.42,3.8 -4.27,2.77 -9.59,6.2 -19.55,6.2 -1.81,0 -3.46,-0.11 -4.99,-0.32 l -15.03,-6.18 c -3.29,-2.12 -5.66,-3.5 -10.94,-3.5 -5.53,0 -7.87,1.51 -11.41,3.8 -4.28,2.77 -9.6,6.2 -19.55,6.2 -4.329999,0 -7.779999,-0.65 -10.659999,-1.61 l -13.86,-7.35 c -1.72,-0.66 -3.68,-1.04 -6.44,-1.04 -5.53,0 -7.87,1.51 -11.41,3.8 -4.28,2.77 -9.6,6.2 -19.54996,6.2 -9.949999,0 -15.279999,-3.43 -19.549999,-6.2 -3.54,-2.29 -5.88,-3.8 -11.4100014,-3.8 -4.14,0 -7.50000001,-3.35 -7.50000001,-7.5 0,-4.14 3.36000001,-7.5 7.50000001,-7.5 9.9500014,0 15.2700014,3.44 19.5500014,6.2 3.54,2.29 5.88,3.8 11.409999,3.8 5.53,0 7.86996,-1.51 11.40996,-3.8 4.28,-2.76 9.6,-6.2 19.55,-6.2 8.46,0 11.23667,2.36557 17.54,4.93 5.24691,2.43238 11.94488,5.14418 16.319999,4.9 4.37512,-0.24418 5.66,-1.78 8.51,-3.63 4.28,-2.76 9.6,-6.2 19.55,-6.2 9.95,0 15.27,3.44 19.55,6.2 0.8,0.52 1.905,1.205 2.27,1.42 11.85355,8.00609 23.84,-3.515 25.61,-4.4 1.77,-0.885 8.04,-3.22 14.5,-3.22 9.95,0 15.27,3.44 19.55,6.2 3.54,2.29 5.88,3.8 11.4,3.8 5.53,0 7.87,-1.51 11.41,-3.8 0.91,-0.58 2.385,-1.5 2.9,-1.8 6.49101,-2.35425 15.45699,-6.92125 24.73,-3.52 2.55,0.6 8.53,3.42 11.47,5.32 3.55,2.29 5.89,3.8 11.42,3.8 5.53,0 7.87,-1.51 11.41,-3.8 3.37,-2.17 10.61,-5.26 13.82,-5.76 6.29138,-1.15363 15.71575,1.32319 19,2.2 z"
     id="path2-4-3"
     sodipodi:nodetypes="ccscscscssscscscscccccccscsccscsccscscssscscscccscccscsccccsccc" /><path
     style="fill:#4d4d4d"
     d="m 152.88379,255.13037 100.96,-100.95 c 0,-0.01 0.01,-0.01 0.02,-0.02 5.77,-5.76 13.44,-8.94 21.59,-8.94 14.31,0 25.95,11.65 25.95,25.95 0,1.99 -0.79,3.9 -2.2,5.31 l -20.49,20.49 c 0.83,0.09 1.65,0.12 2.5,0.14 h 0.01 c 7.63,0 14.79,-2.97 20.18,-8.35 5.38,-5.39 8.35,-12.55 8.35,-20.18 0,-2.07 0.84,-3.94 2.19,-5.3 1.36,-1.36 3.24,-2.2 5.31,-2.2 4.14,0 7.5,3.36 7.5,7.5 0,11.62 -4.52,22.54 -12.72,30.76 l -0.03,0.03 -49.02,49.02 -15.66,15.66 -80.48,80.48 c -8.22,8.22 -19.14,12.75 -30.76,12.75 h -0.07 c -7.17,0 -14.11,-2.1 -20.06,-6.07 -10.16,-6.76 -16.22,-18.07 -16.22,-30.26 -0.01,-8.16 3.17,-15.84 8.94,-21.61 l 33.33,-33.33 z m 112.04,-65.59 21.13,-21.12 c -1.23,-4.71 -5.51,-8.2 -10.6,-8.2 -4.16,0 -8.06,1.62 -11,4.56 -2.94,2.94 -4.56,6.85 -4.56,11 0,5.11 1.82,9.96 5.03,13.76 z m -26.67,62.37 39.93,-39.93 c -6.1,-0.5 -11.95,-2.52 -17.07,-5.94 -7.97,-5.31 -13.4,-13.42 -15.38,-22.55 l -67.24,67.24 -21.46,21.46 -37.75,37.76 c -2.94,2.93 -4.55,6.84 -4.55,11 0,7.16 3.56,13.8 9.53,17.78 3.49,2.32 7.55,3.55 11.77,3.55 h 0.03 c 7.63,0 14.79,-2.97 20.17,-8.35 l 61.87,-61.87 z"
     id="path2-4-36"
     sodipodi:nodetypes="cccsssccscscssscccsssccsccccsssccccccccscssscc" /><g
     id="g1097"
     transform="rotate(9.8678721,439.33489,180.96621)"><polygon
       style="fill:#e0974f"
       points="382.222,52.795 409.012,79.585 390.502,93.865 367.942,71.315 "
       id="polygon4"
       transform="rotate(13.465983,458.92709,593.79789)" /><rect
       x="364.95078"
       y="269.2854"
       transform="rotate(-31.395799,55.003293,15.988682)"
       style="fill:#5daa52;stroke-width:0.99999"
       width="23.192778"
       height="62.917397"
       id="rect6" /><path
       style="fill:#77ce6f"
       d="m 466.27618,92.665318 -11.26581,6.8142 c -17.17101,10.385992 -27.54482,29.304472 -27.05859,49.372692 0.35556,14.70133 -7.24951,28.56517 -19.83432,36.17718 l -9.72707,10.80001 -40.68315,-25.21708 4.74035,-55.93663 c -16.09424,-2.68838 -12.19969,0.31805 -19.11988,-1.71095 -17.97381,-6.19456 -12.7634,-8.19361 -13.41588,-8.88979 11.30671,-32.978082 20.15578,-28.387302 10.49432,-30.766122 -54.83326,-1.28675 -29.27649,6.05143 -5.00481,-8.50043 9.45071,-5.716318 12.24501,-13.642298 22.71239,-11.065042 3.48588,0.858289 15.33018,8.516241 18.53802,10.294734 17.54834,9.748098 39.12058,9.343818 56.29158,-1.042175 l 11.26583,-6.814204 z"
       id="path8"
       sodipodi:nodetypes="cscccccccccscscc"
       transform="translate(-0.27616941,30.994722)" /><g
       id="g997"
       transform="rotate(13.833878,525.96249,3570.1746)"><path
         style="fill:#4d4d4d"
         d="m -322.52859,196.56033 18.51,-14.28 -26.79,-26.79 -14.28,18.52 z m -16.04,37.97 16.4,-16.4 -44.49,-44.49 -16.4,16.4 z m -68.33913,124.32963 16.16913,-17.29963 c 10.4,-10.4 14.47,-25.68 10.61,-39.87 -5.27,-19.37 0.28,-40.22 14.47,-54.41 l 9.31,-9.31 -30.15,-30.15 -9.31,9.31 c -14.19,14.19 -35.04,19.74 -54.41,14.47 -3.54,-0.96 -7.15,-1.43 -10.74,-1.43 -10.78,0 -15.53702,-2.53057 -23.45175,5.17328 l -27.1054,27.89772 -11.17757,-9.50423 27.68297,-29.00349 c 14.19,-14.19 29.36175,-12.87328 48.73175,-7.60328 14.19,3.85 29.47,-0.21 39.87,-10.61 l 9.31,-9.31 -1.87,-1.87 c -2.93,-2.92 -2.93,-7.67 0,-10.6 l 27.01,-27.01 c 2.92,-2.93 7.67,-2.93 10.6,0 l 5.58,5.58 18.3,-23.74 c 1.32,-1.71 3.31,-2.77 5.46,-2.9 2.15,-0.15 4.26,0.65 5.79,2.18 l 38.85,38.86 c 1.53,1.52 2.32,3.63 2.19,5.78 -0.14,2.15 -1.2,4.14 -2.91,5.46 l -23.74,18.3 5.58,5.58 c 2.93,2.93 2.93,7.68 0,10.61 l -27.01,27 c -1.46,1.47 -3.38,2.2 -5.3,2.2 -1.92,0 -3.84,-0.73 -5.3,-2.2 l -1.87,-1.87 -9.31,9.31 c -10.4,10.4 -14.46,25.68 -10.61,39.87 5.27,19.37 -0.28,40.22 -14.47,54.41 l -6.70312,7.92699 z"
         id="path2-4"
         sodipodi:nodetypes="cccccccccccccsccscssccccsccscsccccccccsccsccscccc" /><path
         style="fill:none;fill-opacity:1;stroke:#4d4d4d;stroke-width:15.3011;stroke-linecap:round;stroke-linejoin:round;stroke-miterlimit:4;stroke-dasharray:none;stroke-opacity:1"
         d="m -393.39859,356.23033 -49.73197,-16.61434 -4.64284,-57.88561 -36.33504,6.80345 1.22385,-45.34757 -32.48231,13.99461"
         id="path90-2"
         sodipodi:nodetypes="cccccc" /></g></g></g><g
   inkscape:groupmode="layer"
   id="layer2"
   inkscape:label="Layer 2"
   sodipodi:insensitive="true"
   style="display:none"
   transform="translate(0.27616941,-45.644035)"><path
     style="fill:#4d4d4d"
     d="m 440.70379,247.51037 c 4.14,0 7.5,3.36 7.5,7.5 0,4.15 -3.36,7.5 -7.5,7.5 -5.53,0 -7.88,1.51 -11.42,3.8 -4.28,2.77 -9.6,6.2 -19.55,6.2 -9.96,0 -15.28,-3.43 -19.56,-6.2 -3.54,-2.29 -5.88,-3.8 -11.41,-3.8 -5.53,0 -7.87,1.51 -11.41,3.8 -4.28,2.77 -9.6,6.2 -19.55,6.2 -9.96,0 -15.28,-3.43 -19.56,-6.2 -3.34,-2.16 -5.62,-3.62 -10.51,-3.78 l -142.63,142.63 c -5.52,5.52 -12.78,8.28 -20.03,8.28 -7.25,0 -14.5,-2.76 -20.02,-8.28 l -80.519999,-80.51 c -5.34,-5.35 -8.29,-12.47 -8.29,-20.03 0,-7.57 2.95,-14.68 8.29,-20.03 l 21.05,-21.04 c -1.72,-0.66 -3.68,-1.04 -6.44,-1.04 -5.53,0 -7.87,1.51 -11.41,3.8 -4.28,2.77 -9.6,6.2 -19.55,6.2 -9.95,0 -15.28,-3.43 -19.55,-6.2 -3.54,-2.29 -5.88,-3.8 -11.4100004,-3.8 -4.14,0 -7.50000001,-3.35 -7.50000001,-7.5 0,-4.14 3.36000001,-7.5 7.50000001,-7.5 9.9500004,0 15.2700004,3.44 19.5500004,6.2 3.54,2.29 5.88,3.8 11.41,3.8 5.53,0 7.87,-1.51 11.41,-3.8 4.28,-2.76 9.6,-6.2 19.55,-6.2 8.46,0 13.57,2.49 17.54,4.93 l 125.129999,-125.12 c 14.19,-14.19 35.04,-19.74 54.41,-14.47 14.19,3.85 29.47,-0.21 39.87,-10.61 l 9.31,-9.31 -1.87,-1.87 c -2.93,-2.92 -2.93,-7.67 0,-10.6 l 27.01,-27.01 c 2.92,-2.93 7.67,-2.93 10.6,0 l 5.58,5.58 18.3,-23.74 c 1.32,-1.71 3.31,-2.77 5.46,-2.9 2.15,-0.15 4.26,0.65 5.79,2.18 l 38.85,38.86 c 1.53,1.52 2.32,3.63 2.19,5.78 -0.14,2.15 -1.2,4.14 -2.91,5.46 l -23.74,18.3 5.58,5.58 c 2.93,2.93 2.93,7.68 0,10.61 l -27.01,27 c -1.46,1.47 -3.38,2.2 -5.3,2.2 -1.92,0 -3.84,-0.73 -5.3,-2.2 l -1.87,-1.87 -9.31,9.31 c -10.4,10.4 -14.46,25.68 -10.61,39.87 5.27,19.37 -0.28,40.22 -14.47,54.41 l -2.27,2.27 c 2.46,1.1 4.47,2.39 6.28,3.56 3.55,2.29 5.89,3.8 11.42,3.8 5.52,0 7.87,-1.51 11.41,-3.8 4.27,-2.76 9.6,-6.2 19.55,-6.2 9.95,0 15.28,3.44 19.55,6.2 3.55,2.29 5.89,3.8 11.42,3.8 5.53,0 7.87,-1.51 11.41,-3.8 4.28,-2.76 9.6,-6.2 19.56,-6.2 z m -50.73,-155.23 18.51,-14.28 -26.79,-26.79 -14.28,18.52 z m -16.04,37.97 16.4,-16.4 -44.49,-44.49 -16.4,16.4 z m -27.09,12.75 9.31,-9.31 -30.15,-30.15 -9.31,9.31 c -14.19,14.19 -35.04,19.74 -54.41,14.47 -3.54,-0.96 -7.15,-1.43 -10.74,-1.43 -10.78,0 -21.32,4.23 -29.13,12.04 l -119.41,119.41 c 3.58,-0.45 5.66,-1.78 8.51,-3.63 4.28,-2.76 9.6,-6.2 19.55,-6.2 9.95,0 15.27,3.44 19.55,6.2 0.8,0.52 1.54,0.99 2.27,1.42 l 100.96,-100.95 c 0,-0.01 0.01,-0.01 0.02,-0.02 5.77,-5.76 13.44,-8.94 21.59,-8.94 14.31,0 25.95,11.65 25.95,25.95 0,1.99 -0.79,3.9 -2.2,5.31 l -20.49,20.49 c 0.83,0.09 1.65,0.12 2.5,0.14 h 0.01 c 7.63,0 14.79,-2.97 20.18,-8.35 5.38,-5.39 8.35,-12.55 8.35,-20.18 0,-2.07 0.84,-3.94 2.19,-5.3 1.36,-1.36 3.24,-2.2 5.31,-2.2 4.14,0 7.5,3.36 7.5,7.5 0,11.62 -4.52,22.54 -12.72,30.76 -0.01,0.01 -0.02,0.02 -0.03,0.03 l -49.02,49.02 c 5.1,1.2 8.53,3.42 11.47,5.32 3.55,2.29 5.89,3.8 11.42,3.8 5.53,0 7.87,-1.51 11.41,-3.8 3.37,-2.17 7.4,-4.76 13.82,-5.76 l 10.66,-10.67 c 10.4,-10.4 14.47,-25.68 10.61,-39.87 -5.27,-19.37 0.28,-40.22 14.47,-54.41 z m -182.35,251.55 122.05,-122.05 c -0.22,0 -0.44,0.01 -0.67,0.01 -9.96,0 -15.28,-3.43 -19.55,-6.2 -3.55,-2.29 -5.89,-3.8 -11.42,-3.8 -3.39,0 -5.57,0.57 -7.58,1.54 l -80.48,80.48 c -8.22,8.22 -19.14,12.75 -30.76,12.75 -0.02,0 -0.04,0 -0.07,0 -7.17,0 -14.11,-2.1 -20.06,-6.07 -10.16,-6.76 -16.219999,-18.07 -16.219999,-30.26 -0.01,-8.16 3.169999,-15.84 8.939999,-21.61 l 33.33,-33.33 c -3.29,-2.12 -5.66,-3.5 -10.94,-3.5 -5.53,0 -7.87,1.51 -11.41,3.8 -4.28,2.77 -9.6,6.2 -19.55,6.2 -4.329999,0 -7.779999,-0.65 -10.659999,-1.61 l -24.3,24.3 c -2.51,2.52 -3.9,5.86 -3.9,9.42 0,3.56 1.39,6.9 3.9,9.42 l 80.509999,80.51 c 2.52,2.52 5.86,3.9 9.42,3.9 3.56,0 6.91,-1.38 9.42,-3.9 z m 100.43,-205.01 21.13,-21.12 c -1.23,-4.71 -5.51,-8.2 -10.6,-8.2 -4.16,0 -8.06,1.62 -11,4.56 -2.94,2.94 -4.56,6.85 -4.56,11 0,5.11 1.82,9.96 5.03,13.76 z m -26.67,62.37 39.93,-39.93 c -6.1,-0.5 -11.95,-2.52 -17.07,-5.94 -7.97,-5.31 -13.4,-13.42 -15.38,-22.55 l -67.24,67.24 c 3.54,-1.77 8.04,-3.22 14.5,-3.22 9.95,0 15.27,3.44 19.55,6.2 3.54,2.29 5.88,3.8 11.4,3.8 5.53,0 7.87,-1.51 11.41,-3.8 0.91,-0.58 1.87,-1.2 2.9,-1.8 z m -82.02,82.02 61.87,-61.87 c -6.36,-1.01 -10.36,-3.58 -13.7,-5.75 -3.55,-2.29 -5.89,-3.8 -11.41,-3.8 -5.53,0 -7.87,1.51 -11.42,3.8 -4.27,2.77 -9.59,6.2 -19.55,6.2 -1.81,0 -3.46,-0.11 -4.99,-0.32 l -37.75,37.76 c -2.94,2.93 -4.55,6.84 -4.55,11 0,7.16 3.56,13.8 9.53,17.78 3.49,2.32 7.55,3.55 11.77,3.55 0.01,0 0.02,0 0.03,0 7.63,0 14.79,-2.97 20.17,-8.35 z"
     id="path2" /></g></svg>
